<?xml version="1.0" encoding="utf-8"?>
<!-- Generator: Adobe Illustrator 15.1.0, SVG Export Plug-In . SVG Version: 6.00 Build 0)  -->
<!DOCTYPE svg PUBLIC "-//W3C//DTD SVG 1.1//EN" "http://www.w3.org/Graphics/SVG/1.1/DTD/svg11.dtd">
<svg version="1.1" id="Layer_1" xmlns="http://www.w3.org/2000/svg" xmlns:xlink="http://www.w3.org/1999/xlink" x="0px" y="0px"
	 width="135px" height="40px" viewBox="0 0 135 40" enable-background="new 0 0 135 40" xml:space="preserve">
<g>
	<path fill="#FFFFFF" d="M134.104,35.268c0,2.116-1.713,3.83-3.834,3.83H4.801c-2.119,0-3.839-1.714-3.839-3.83V4.725
		c0-2.115,1.72-3.835,3.839-3.835H130.27c2.121,0,3.834,1.72,3.834,3.835V35.268z"/>
	<path fill="#A6A6A6" d="M130.27,40H4.801C2.194,40,0,37.872,0,35.268V4.726C0,2.12,2.194,0,4.801,0H130.27
		c2.605,0,4.73,2.12,4.73,4.726v30.542C135,37.872,132.875,40,130.27,40L130.27,40z"/>
	<path d="M134,35.268c0,2.116-1.609,3.732-3.73,3.732H4.801C2.682,39,1,37.384,1,35.268V4.725C1,2.609,2.682,1,4.801,1H130.27
		c2.121,0,3.73,1.609,3.73,3.725V35.268z"/>
	<path fill="#FFFFFF" d="M30.2,19.784c-0.029-3.223,2.639-4.791,2.761-4.864c-1.511-2.203-3.853-2.504-4.676-2.528
		c-1.967-0.207-3.875,1.177-4.877,1.177c-1.022,0-2.565-1.157-4.228-1.123c-2.14,0.033-4.142,1.272-5.24,3.196
		c-2.266,3.923-0.576,9.688,1.595,12.859c1.086,1.554,2.355,3.287,4.016,3.226c1.625-0.066,2.232-1.035,4.193-1.035
		c1.943,0,2.513,1.035,4.207,0.996c1.744-0.027,2.842-1.56,3.89-3.127c1.255-1.779,1.759-3.533,1.779-3.623
		C33.58,24.924,30.233,23.646,30.2,19.784z"/>
	<path fill="#FFFFFF" d="M27,10.306c0.874-1.093,1.472-2.58,1.306-4.089c-1.265,0.056-2.847,0.875-3.758,1.944
		c-0.806,0.942-1.526,2.486-1.34,3.938C24.629,12.205,26.088,11.382,27,10.306z"/>
	
		<linearGradient id="SVGID_1_" gradientUnits="userSpaceOnUse" x1="99.0332" y1="0.8911" x2="99.0332" y2="36.9477" gradientTransform="matrix(1 0 0 -1 0 41)">
		<stop  offset="0" style="stop-color:#1A1A1A;stop-opacity:0.1"/>
		<stop  offset="0.1235" style="stop-color:#212121;stop-opacity:0.1506"/>
		<stop  offset="0.3085" style="stop-color:#353535;stop-opacity:0.2265"/>
		<stop  offset="0.5321" style="stop-color:#575757;stop-opacity:0.3181"/>
		<stop  offset="0.7834" style="stop-color:#858585;stop-opacity:0.4212"/>
		<stop  offset="1" style="stop-color:#B3B3B3;stop-opacity:0.51"/>
	</linearGradient>
	<path fill="url(#SVGID_1_)" d="M130.27,0H63.065l26.324,40h40.881c2.605,0,4.73-2.128,4.73-4.732V4.726
		C135,2.12,132.875,0,130.27,0z"/>
	<g>
		<path fill="#FFFFFF" d="M53.737,31.504h-2.271l-1.244-3.909h-4.324l-1.185,3.909h-2.211l4.285-13.308h2.646L53.737,31.504z
			 M49.847,25.955l-1.125-3.475c-0.119-0.355-0.343-1.191-0.671-2.507h-0.04c-0.132,0.566-0.343,1.402-0.632,2.507l-1.106,3.475
			H49.847z"/>
		<path fill="#FFFFFF" d="M64.734,26.588c0,1.632-0.443,2.922-1.33,3.869c-0.794,0.843-1.781,1.264-2.958,1.264
			c-1.271,0-2.185-0.453-2.74-1.361v5.035h-2.132V25.062c0-1.025-0.027-2.076-0.079-3.154h1.875l0.119,1.521h0.04
			c0.711-1.146,1.79-1.719,3.238-1.719c1.132,0,2.077,0.447,2.833,1.342C64.356,23.949,64.734,25.127,64.734,26.588z M62.562,26.666
			c0-0.934-0.21-1.704-0.632-2.311c-0.461-0.631-1.08-0.947-1.856-0.947c-0.526,0-1.004,0.176-1.431,0.523
			c-0.428,0.35-0.708,0.807-0.839,1.373c-0.066,0.264-0.099,0.479-0.099,0.649v1.601c0,0.697,0.214,1.286,0.642,1.768
			c0.428,0.48,0.984,0.721,1.668,0.721c0.803,0,1.428-0.311,1.875-0.928C62.338,28.496,62.562,27.68,62.562,26.666z"/>
		<path fill="#FFFFFF" d="M75.771,26.588c0,1.632-0.443,2.922-1.33,3.869c-0.795,0.843-1.781,1.264-2.959,1.264
			c-1.271,0-2.185-0.453-2.74-1.361v5.035H66.61V25.062c0-1.025-0.027-2.076-0.079-3.154h1.875l0.119,1.521h0.039
			c0.711-1.146,1.789-1.719,3.238-1.719c1.131,0,2.076,0.447,2.834,1.342C75.393,23.949,75.771,25.127,75.771,26.588z M73.6,26.666
			c0-0.934-0.211-1.704-0.633-2.311c-0.461-0.631-1.078-0.947-1.855-0.947c-0.526,0-1.004,0.176-1.432,0.523
			c-0.428,0.35-0.707,0.807-0.838,1.373c-0.064,0.264-0.099,0.479-0.099,0.649v1.601c0,0.697,0.214,1.286,0.64,1.768
			c0.428,0.479,0.984,0.721,1.67,0.721c0.803,0,1.428-0.311,1.875-0.928C73.375,28.496,73.6,27.68,73.6,26.666z"/>
		<path fill="#FFFFFF" d="M88.111,27.771c0,1.133-0.396,2.054-1.182,2.765c-0.867,0.776-2.076,1.165-3.625,1.165
			c-1.433,0-2.58-0.276-3.447-0.829l0.494-1.777c0.934,0.554,1.961,0.83,3.08,0.83c0.803,0,1.428-0.182,1.875-0.543
			c0.446-0.362,0.672-0.846,0.672-1.45c0-0.541-0.187-0.994-0.554-1.363c-0.368-0.368-0.979-0.711-1.836-1.026
			c-2.33-0.869-3.496-2.14-3.496-3.812c0-1.092,0.412-1.986,1.234-2.685c0.821-0.698,1.911-1.047,3.269-1.047
			c1.211,0,2.219,0.211,3.021,0.632l-0.535,1.738c-0.754-0.408-1.604-0.612-2.558-0.612c-0.752,0-1.342,0.185-1.764,0.553
			c-0.355,0.329-0.535,0.73-0.535,1.206c0,0.525,0.205,0.961,0.613,1.303c0.355,0.315,1,0.658,1.934,1.026
			c1.146,0.462,1.988,1,2.527,1.618C87.842,26.081,88.111,26.852,88.111,27.771z"/>
		<path fill="#FFFFFF" d="M95.18,23.508h-2.35v4.659c0,1.185,0.414,1.776,1.244,1.776c0.381,0,0.697-0.032,0.947-0.099l0.059,1.619
			c-0.42,0.157-0.973,0.236-1.658,0.236c-0.842,0-1.5-0.257-1.975-0.771c-0.473-0.514-0.711-1.375-0.711-2.587v-4.837h-1.4v-1.6h1.4
			v-1.757l2.094-0.632v2.389h2.35V23.508z"/>
		<path fill="#FFFFFF" d="M105.762,26.627c0,1.475-0.422,2.686-1.264,3.633c-0.881,0.975-2.053,1.461-3.514,1.461
			c-1.41,0-2.531-0.467-3.367-1.4c-0.836-0.935-1.254-2.113-1.254-3.534c0-1.487,0.432-2.705,1.293-3.652
			c0.863-0.948,2.025-1.422,3.486-1.422c1.407,0,2.539,0.468,3.395,1.402C105.354,24.021,105.762,25.191,105.762,26.627z
			 M103.551,26.676c0-0.879-0.191-1.633-0.572-2.264c-0.446-0.762-1.086-1.143-1.916-1.143c-0.854,0-1.508,0.381-1.955,1.143
			c-0.381,0.631-0.571,1.398-0.571,2.304c0,0.88,0.19,1.636,0.571,2.265c0.461,0.762,1.105,1.143,1.937,1.143
			c0.815,0,1.455-0.389,1.916-1.162C103.354,28.316,103.551,27.557,103.551,26.676z"/>
		<path fill="#FFFFFF" d="M112.693,23.783c-0.211-0.039-0.437-0.059-0.672-0.059c-0.75,0-1.33,0.282-1.738,0.85
			c-0.355,0.5-0.533,1.132-0.533,1.895v5.035h-2.131V24.93c0-1.105-0.02-2.113-0.061-3.021h1.856l0.078,1.836h0.06
			c0.225-0.631,0.579-1.14,1.065-1.521c0.475-0.343,0.987-0.514,1.541-0.514c0.196,0,0.375,0.014,0.532,0.039v2.033H112.693z"/>
		<path fill="#FFFFFF" d="M122.229,26.252c0,0.382-0.024,0.704-0.078,0.967h-6.396c0.024,0.948,0.334,1.674,0.929,2.174
			c0.539,0.446,1.235,0.67,2.092,0.67c0.947,0,1.811-0.15,2.588-0.453l0.334,1.479c-0.908,0.396-1.98,0.593-3.217,0.593
			c-1.488,0-2.656-0.438-3.506-1.312c-0.849-0.875-1.273-2.051-1.273-3.524c0-1.446,0.395-2.651,1.186-3.612
			c0.828-1.026,1.947-1.539,3.355-1.539c1.383,0,2.43,0.513,3.141,1.539C121.945,24.047,122.229,25.055,122.229,26.252z
			 M120.195,25.699c0.014-0.633-0.125-1.178-0.414-1.639c-0.369-0.594-0.936-0.89-1.699-0.89c-0.697,0-1.264,0.289-1.697,0.869
			c-0.355,0.461-0.566,1.015-0.631,1.658L120.195,25.699L120.195,25.699z"/>
	</g>
	<g>
		<g>
			<path fill="#FFFFFF" d="M45.349,13.493c-0.609,0-1.14-0.03-1.579-0.08V6.787c0.569-0.09,1.189-0.14,1.858-0.14
				c2.52,0,3.679,1.239,3.679,3.258C49.307,12.234,47.938,13.493,45.349,13.493z M45.719,7.497c-0.34,0-0.63,0.02-0.87,0.07v5.037
				c0.13,0.02,0.38,0.03,0.729,0.03c1.649,0,2.589-0.939,2.589-2.698C48.167,8.366,47.318,7.497,45.719,7.497z"/>
			<path fill="#FFFFFF" d="M52.928,13.543c-1.419,0-2.339-1.06-2.339-2.499c0-1.499,0.939-2.568,2.419-2.568
				c1.399,0,2.339,1.009,2.339,2.488C55.347,12.483,54.377,13.543,52.928,13.543z M52.968,9.266c-0.779,0-1.279,0.729-1.279,1.749
				c0,0.999,0.51,1.729,1.27,1.729c0.76,0,1.27-0.78,1.27-1.749C54.228,10.005,53.728,9.266,52.968,9.266z"/>
			<path fill="#FFFFFF" d="M63.447,8.576l-1.52,4.857h-0.989l-0.63-2.109c-0.16-0.53-0.29-1.049-0.39-1.569h-0.021
				c-0.08,0.529-0.229,1.059-0.39,1.569l-0.67,2.109h-0.999l-1.429-4.857h1.109l0.549,2.309c0.13,0.55,0.24,1.07,0.33,1.56h0.021
				c0.08-0.41,0.21-0.92,0.399-1.549l0.689-2.319h0.88l0.659,2.269c0.16,0.549,0.29,1.089,0.39,1.599h0.03
				c0.07-0.5,0.18-1.03,0.33-1.599l0.59-2.269L63.447,8.576L63.447,8.576z"/>
			<path fill="#FFFFFF" d="M69.047,13.433h-1.079v-2.789c0-0.859-0.33-1.289-0.979-1.289c-0.64,0-1.08,0.55-1.08,1.189v2.888H64.83
				V9.965c0-0.43-0.01-0.889-0.04-1.389h0.949l0.05,0.75h0.03c0.29-0.52,0.88-0.849,1.539-0.849c1.02,0,1.689,0.779,1.689,2.049
				V13.433z"/>
			<path fill="#FFFFFF" d="M72.029,13.433h-1.08V6.347h1.08V13.433z"/>
			<path fill="#FFFFFF" d="M75.969,13.543c-1.42,0-2.34-1.06-2.34-2.499c0-1.499,0.939-2.568,2.42-2.568
				c1.398,0,2.338,1.009,2.338,2.488C78.387,12.483,77.418,13.543,75.969,13.543z M76.008,9.266c-0.779,0-1.279,0.729-1.279,1.749
				c0,0.999,0.51,1.729,1.271,1.729c0.76,0,1.271-0.78,1.271-1.749C77.268,10.005,76.768,9.266,76.008,9.266z"/>
			<path fill="#FFFFFF" d="M82.648,13.433l-0.08-0.56h-0.029c-0.33,0.45-0.811,0.669-1.42,0.669c-0.869,0-1.488-0.609-1.488-1.429
				c0-1.199,1.039-1.819,2.838-1.819v-0.09c0-0.64-0.34-0.959-1.01-0.959c-0.48,0-0.898,0.12-1.27,0.359l-0.219-0.709
				c0.448-0.28,1.008-0.419,1.668-0.419c1.27,0,1.909,0.669,1.909,2.009v1.789c0,0.49,0.021,0.869,0.068,1.159H82.648z
				 M82.498,11.015c-1.199,0-1.799,0.29-1.799,0.979c0,0.51,0.311,0.76,0.74,0.76c0.549,0,1.059-0.42,1.059-0.989V11.015z"/>
			<path fill="#FFFFFF" d="M88.797,13.433l-0.049-0.78h-0.031c-0.309,0.59-0.83,0.89-1.559,0.89c-1.17,0-2.039-1.029-2.039-2.479
				c0-1.519,0.9-2.588,2.129-2.588c0.65,0,1.109,0.22,1.369,0.659h0.02V6.347h1.08v5.777c0,0.47,0.01,0.909,0.039,1.309H88.797z
				 M88.637,10.575c0-0.68-0.449-1.259-1.139-1.259c-0.801,0-1.289,0.709-1.289,1.709c0,0.979,0.51,1.649,1.27,1.649
				c0.681,0,1.158-0.589,1.158-1.289V10.575z"/>
			<path fill="#FFFFFF" d="M95.078,7.776c-0.359,0-0.639-0.28-0.639-0.65s0.289-0.64,0.66-0.64c0.368,0,0.668,0.27,0.657,0.64
				C95.758,7.516,95.479,7.776,95.078,7.776z M95.639,13.433h-1.08V8.576h1.08V13.433z"/>
			<path fill="#FFFFFF" d="M101.777,13.433h-1.08v-2.789c0-0.859-0.33-1.289-0.979-1.289c-0.641,0-1.079,0.55-1.079,1.189v2.888
				h-1.08V9.965c0-0.43-0.011-0.889-0.039-1.389h0.948l0.05,0.75h0.03c0.289-0.52,0.879-0.849,1.539-0.849
				c1.021,0,1.688,0.779,1.688,2.049v2.907H101.777z"/>
			<path fill="#FFFFFF" d="M109.957,13.433l-0.049-0.78h-0.031c-0.309,0.59-0.83,0.89-1.559,0.89c-1.17,0-2.039-1.029-2.039-2.479
				c0-1.519,0.9-2.588,2.129-2.588c0.65,0,1.109,0.22,1.369,0.659h0.02V6.347h1.08v5.777c0,0.47,0.01,0.909,0.039,1.309H109.957z
				 M109.797,10.575c0-0.68-0.449-1.259-1.139-1.259c-0.801,0-1.289,0.709-1.289,1.709c0,0.979,0.51,1.649,1.27,1.649
				c0.68,0,1.158-0.589,1.158-1.289V10.575z"/>
			<path fill="#FFFFFF" d="M116.758,11.264h-3.238c0.021,0.919,0.629,1.439,1.529,1.439c0.479,0,0.918-0.08,1.309-0.23l0.17,0.75
				c-0.459,0.2-1,0.3-1.629,0.3c-1.52,0-2.42-0.959-2.42-2.449c0-1.489,0.92-2.608,2.299-2.608c1.24,0,2.021,0.919,2.021,2.309
				C116.797,10.964,116.787,11.134,116.758,11.264z M115.768,10.495c0-0.75-0.379-1.279-1.069-1.279
				c-0.619,0-1.109,0.54-1.179,1.279H115.768z"/>
		</g>
	</g>
</g>
</svg>
