<?xml version="1.0" standalone="no"?>
<!DOCTYPE svg PUBLIC "-//W3C//DTD SVG 20010904//EN"
 "http://www.w3.org/TR/2001/REC-SVG-20010904/DTD/svg10.dtd">
<svg version="1.0" xmlns="http://www.w3.org/2000/svg"
 width="48.000000pt" height="96.000000pt" viewBox="0 0 48.000000 96.000000"
 preserveAspectRatio="xMidYMid meet">
<g transform="translate(0.000000,96.000000) scale(0.100000,-0.100000)"
fill="#8d8d8d" stroke="none">
<path d="M105 943 c-71 -37 -105 -94 -105 -176 0 -113 92 -195 208 -184 l57 4
57 -53 c46 -44 63 -54 91 -54 42 0 67 26 67 69 0 26 -11 45 -54 89 l-53 57 4
57 c11 117 -71 208 -186 208 -31 -1 -69 -8 -86 -17z m169 -92 c26 -27 31 -39
31 -80 0 -55 -24 -90 -76 -111 -66 -28 -146 22 -156 98 -15 112 119 174 201
93z"/>
</g>
<g transform="translate(0.000000,96.000000) scale(0.100000,-0.100000)"
fill="#000000" stroke="none">
<path d="M105 463 c-71 -37 -105 -94 -105 -176 0 -113 92 -195 208 -184 l57 4
57 -53 c46 -44 63 -54 91 -54 42 0 67 26 67 69 0 26 -11 45 -54 89 l-53 57 4
57 c11 117 -71 208 -186 208 -31 -1 -69 -8 -86 -17z m169 -92 c26 -27 31 -39
31 -80 0 -55 -24 -90 -76 -111 -66 -28 -146 22 -156 98 -15 112 119 174 201
93z"/>
</g>
</svg>
